<svg xmlns="http://www.w3.org/2000/svg" viewBox="0 0 128 128" width="128" height="128">
  <!-- Cloud body -->
  <path d="M100 72c0-13.3-10.7-24-24-24-2.4 0-4.7.4-6.9 1C65.5 37.8 54.3 30 41.5 30 25.8 30 13 42.8 13 58.5c0 1.5.1 3 .4 4.5C5.8 65.8 1 72.6 1 80.5 1 91.3 9.7 100 20.5 100h69C103.6 100 115 88.6 115 74.5c0-1-.1-1.9-.2-2.8C108.8 71.9 104 72 100 72z" fill="#af52de"/>
  <!-- Recovery arrow (circular) -->
  <g transform="translate(52, 52)">
    <path d="M20 0A20 20 0 0 1 20 40A20 20 0 0 1 0 20" fill="none" stroke="#fff" stroke-width="4" stroke-linecap="round" stroke-dasharray="94" stroke-dashoffset="20"/>
    <polygon points="0,12 0,28 8,20" fill="#fff"/>
  </g>
</svg>
